<svg width="29" id="inst" height="29" viewBox="0 0 29 29" fill="#fff" xmlns="http://www.w3.org/2000/svg">
<path d="M14.5 9.94389C11.9913 9.94389 9.94389 11.9913 9.94389 14.5C9.94389 17.0088 11.9913 19.0562 14.5 19.0562C17.0088 19.0562 19.0562 17.0088 19.0562 14.5C19.0562 11.9913 17.0088 9.94389 14.5 9.94389ZM28.1651 14.5C28.1651 12.6133 28.1822 10.7437 28.0762 8.86039C27.9703 6.67289 27.4712 4.73149 25.8716 3.13188C24.2686 1.52885 22.3306 1.03324 20.1431 0.927286C18.2564 0.821329 16.3868 0.838419 14.5035 0.838419C12.6167 0.838419 10.7471 0.821329 8.86381 0.927286C6.67631 1.03324 4.7349 1.53227 3.13529 3.13188C1.53227 4.7349 1.03666 6.67289 0.930704 8.86039C0.824747 10.7471 0.841837 12.6167 0.841837 14.5C0.841837 16.3833 0.824747 18.2564 0.930704 20.1397C1.03666 22.3272 1.53568 24.2686 3.13529 25.8682C4.73832 27.4712 6.67631 27.9668 8.86381 28.0728C10.7505 28.1787 12.6202 28.1617 14.5035 28.1617C16.3902 28.1617 18.2598 28.1787 20.1431 28.0728C22.3306 27.9668 24.272 27.4678 25.8716 25.8682C27.4747 24.2652 27.9703 22.3272 28.0762 20.1397C28.1856 18.2564 28.1651 16.3868 28.1651 14.5ZM14.5 21.5103C10.6206 21.5103 7.48979 18.3794 7.48979 14.5C7.48979 10.6206 10.6206 7.48979 14.5 7.48979C18.3794 7.48979 21.5103 10.6206 21.5103 14.5C21.5103 18.3794 18.3794 21.5103 14.5 21.5103ZM21.7974 8.83988C20.8916 8.83988 20.1602 8.10844 20.1602 7.20268C20.1602 6.29692 20.8916 5.56547 21.7974 5.56547C22.7032 5.56547 23.4346 6.29692 23.4346 7.20268C23.4349 7.41775 23.3927 7.63077 23.3105 7.82953C23.2284 8.02828 23.1078 8.20888 22.9557 8.36096C22.8036 8.51304 22.623 8.63363 22.4243 8.71581C22.2255 8.79799 22.0125 8.84015 21.7974 8.83988Z" fill="#fff"/>
</svg>
